# xmcd
#
# Track frame offsets:
# 150
# 18170
# 35662
# 48547
# 69395
# 84807
# 99302
# 119355
# 136770
# 153115
# 174587
# 188345
# 204540
# 221797
#
# Disc length: 3128 seconds
#
#
# Revision: 0
# Processed by: cddbd v1.5PL3 Copyright (c) Steve Scherf et al.
# Submitted via: FreeRIP 2.60 
#
DISCID=af0c360e
DTITLE=Gunter Gabriel - Komm unter meine Decke
DYEAR=1900
DGENRE=Country
TTITLE0=Intercity Linie Nummer 4
TTITLE1=Komm unter meine Decke
TTITLE2=Hey Boss, ich brauch mehr Geld
TTITLE3=Er ist ein Kerl
TTITLE4=Deutschland ist
TTITLE5=Mädchen ab 30
TTITLE6=Ohne Moos nichts los
TTITLE7=Ich werd gesucht in Bremerhafen
TTITLE8=Reinhausen, du darfst nicht untergeh´n
TTITLE9=Ich bin CB-Funker
TTITLE10=Franky´s Curry Station
TTITLE11=Willy Klein, der Fernsehmann
TTITLE12=Mit dem Hammer in der Hand
TTITLE13=Papa trinkt Bier
EXTD=
EXTT0=
EXTT1=
EXTT2=
EXTT3=
EXTT4=
EXTT5=
EXTT6=
EXTT7=
EXTT8=
EXTT9=
EXTT10=
EXTT11=
EXTT12=
EXTT13=
PLAYORDER=
